<?xml version="1.0" encoding="utf-8"?>
<svg xmlns="http://www.w3.org/2000/svg" viewBox="0 0 500 500" xmlns:bx="https://boxy-svg.com" alt="Logo capybit.pl">
  <path style="stroke-linecap: round; stroke-linejoin: round; stroke-width: 11px; stroke: rgb(10, 47, 73); fill: rgb(244, 137, 59);" d="M 303.558 270.036 C 303.558 270.036 152.502 269.746 153.173 269.746 C 153.844 269.746 215.604 148.751 215.604 148.751 C 216.109 149.462 198.455 136.761 206.935 126.551 C 216.021 118.411 225.355 124.099 234.892 132.228 C 231.567 131.821 341.585 140.831 344.634 145.464 C 353.593 150.74 354.25 210.939 343.286 212.485 C 344.012 214.866 291.743 221.188 291.268 220.305 C 298.646 225.661 309.751 272.146 303.558 270.036 Z"/>
  <path style="fill: rgb(216, 216, 216); stroke: rgb(10, 47, 73); stroke-width: 10px; stroke-linecap: round; stroke-linejoin: round;" d="M 331.412 166.072 L 349.994 172.657"/>
  <ellipse style="stroke: rgb(0, 0, 0); stroke-width: 0px; fill: rgb(10, 47, 73);" cx="271.895" cy="163.214" rx="9.152" ry="8.883"/>
  <rect x="118.634" y="99.038" width="282.006" height="172.639" style="fill: rgba(216, 216, 216, 0); stroke-linecap: round; stroke-linejoin: round; stroke-width: 14px; stroke: rgb(10, 47, 73);" rx="11.449" ry="11.449"/>
  <path style="fill: rgb(216, 216, 216); stroke-width: 14px; stroke: rgb(10, 47, 73);" d="M 86.394 311.581 L 433.48 311.883"/>
  <path style="fill: rgb(216, 216, 216); stroke-width: 15px; stroke-linecap: round; stroke-linejoin: round; stroke: rgb(10, 47, 73);" d="M 93.841 319.293 L 426.014 319.896"/>
  <path style="fill: rgb(216, 216, 216); stroke-width: 14px; stroke: rgb(10, 47, 73);" d="M 121.389 269.91 L 91.974 308.796"/>
  <path style="fill: rgb(216, 216, 216); stroke-width: 14px; transform-box: fill-box; transform-origin: 50% 50%; stroke: rgb(10, 47, 73);" d="M 427.906 309.074 L 398.491 270.188" transform="matrix(-1, 0, 0, -1, 0.000031, 0.000033)"/>
  <text style="fill: rgb(10, 47, 73); font-family: Geologica; font-size: 28px; font-weight: 700; white-space: pre;" transform="matrix(3.511806, 0, 0, 3.761038, -166.736845, -828.825367)" x="69.414" y="331.075">capybit</text>
  <defs>
    <style bx:fonts="Geologica">@import url(https://fonts.googleapis.com/css2?family=Geologica%3Aital%2Cwght%400%2C100..900&amp;display=swap);</style>
  </defs>
</svg>